<svg version="1.1" xmlns="http://www.w3.org/2000/svg" viewBox="0 0 2422.2326594829515 2932.6327873062605" width="4844.465318965903" height="5865.265574612521">
  <!-- svg-source:excalidraw -->
  
  <defs>
    <style class="style-fonts">
      @font-face {
        font-family: "Virgil";
        src: url("https://excalidraw.com/Virgil.woff2");
      }
      @font-face {
        font-family: "Cascadia";
        src: url("https://excalidraw.com/Cascadia.woff2");
      }
    </style>
    
  </defs>
  <rect x="0" y="0" width="2422.2326594829515" height="2932.6327873062605" fill="#11172b"></rect><g stroke-linecap="round" transform="translate(20.938521262579684 758.6806798879903) rotate(0 291.41931514647763 168.97422474879795)"><path d="M3.22 -2.12 L579.68 -0.01 L582.84 341.31 L0.46 337.27" stroke="none" stroke-width="0" fill="#099268"></path><path d="M1.33 -0.99 C128.8 2.49, 260.75 0.81, 583.34 0.22 M0.06 0.73 C133.01 3.68, 267.02 4.26, 583.32 0.68 M582.21 1.29 C577.58 70.9, 581.54 147.06, 581.17 337.74 M582.76 -0.18 C583.82 84.33, 583.96 167.98, 582.28 337.14 M583.84 338.07 C358.08 342.66, 132.79 340.65, -0.88 338.73 M582.86 338.64 C449.46 338.55, 315.68 339.58, 0.7 338.4 M2.11 339.53 C0.22 217.12, 0.51 97.2, 0.47 -2.5 M-0.8 338.13 C-3.68 221.57, -4.39 104.03, 0.55 0.53" stroke="#ffffff" stroke-width="4" fill="none"></path></g><g transform="translate(137.32449595495575 866.4323594379484) rotate(0 175.03334045410156 61.22254519883984)"><text x="175.03334045410156" y="0" font-family="Virgil, Segoe UI Emoji" font-size="97.95607231814374px" fill="#ffffff" text-anchor="middle" style="white-space: pre;" direction="ltr" dominant-baseline="text-before-edge">Estado</text></g><g stroke-linecap="round"><g transform="translate(655.39668268523 967.1584417626115) rotate(0 480.0162296438551 102.5)"><path d="M0 0 C160.01 34.17, 800.03 170.83, 960.03 205 M0 0 C160.01 34.17, 800.03 170.83, 960.03 205" stroke="#ffffff" stroke-width="4" fill="none"></path></g><g transform="translate(655.39668268523 967.1584417626115) rotate(0 480.0162296438551 102.5)"><path d="M930.32 209.15 C939.59 207.85, 948.85 206.56, 960.03 205 M930.32 209.15 C941.36 207.61, 952.4 206.07, 960.03 205" stroke="#ffffff" stroke-width="4" fill="none"></path></g><g transform="translate(655.39668268523 967.1584417626115) rotate(0 480.0162296438551 102.5)"><path d="M934.61 189.08 C942.53 194.04, 950.46 199.01, 960.03 205 M934.61 189.08 C944.05 194.99, 953.5 200.91, 960.03 205" stroke="#ffffff" stroke-width="4" fill="none"></path></g></g><mask></mask><g stroke-linecap="round" transform="translate(1681.1571341262124 974.2214115186653) rotate(0 317.70110274156036 184.21324444678706)"><path d="M-0.72 -2.27 L636.99 -0.28 L634.8 367.6 L-0.55 368.86" stroke="none" stroke-width="0" fill="#fa5252"></path><path d="M0.64 -0.87 C203.64 -3.82, 404.12 -2.44, 636.22 -1.4 M0.18 -0.74 C197.01 -3.22, 394.06 -3.65, 635.55 -0.64 M633.92 -0.99 C632.65 73.83, 633.23 151.01, 636.26 369.68 M635.46 0.64 C635.23 93.05, 635.25 184.67, 635.4 368.87 M633.97 369.39 C484.73 369.37, 331.34 370.52, -0.59 369.88 M634.99 367.74 C405.34 365.31, 174.21 365.16, 0.7 367.98 M-0.91 368.14 C4.96 288.74, 4.68 203.37, -0.47 -2.22 M0.01 369.62 C0.15 223.38, -1.86 76.6, -1.09 -0.96" stroke="#ffffff" stroke-width="4" fill="none"></path></g><g transform="translate(1737.9262213811526 1039.3565517075567) rotate(0 266.5083312988281 104.72249207129914)"><text x="266.5083312988281" y="0" font-family="Virgil, Segoe UI Emoji" font-size="83.77799365703932px" fill="#ffffff" text-anchor="middle" style="white-space: pre;" direction="ltr" dominant-baseline="text-before-edge">Escuela </text><text x="266.5083312988281" y="104.72249207129914" font-family="Virgil, Segoe UI Emoji" font-size="83.77799365703932px" fill="#ffffff" text-anchor="middle" style="white-space: pre;" direction="ltr" dominant-baseline="text-before-edge">Baja calidad</text></g><g stroke-linecap="round" transform="translate(10 2396.7874460932326) rotate(0 291.41931514647763 168.97422474879795)"><path d="M3.15 2.63 L580.15 3.13 L582.48 335.05 L3.32 340.63" stroke="none" stroke-width="0" fill="#099268"></path><path d="M-1.37 1.24 C200.52 -1.78, 401.26 0.63, 583.23 -0.01 M-0.58 0.63 C173.94 -4.2, 347.82 -3.82, 582.85 -0.46 M583.62 -1.98 C583.32 88.36, 581.13 177.67, 584.75 336.16 M582.83 1 C581.68 111.39, 582.28 219.86, 582.77 337.42 M581.7 339.43 C426.97 335.26, 273.39 336.71, -0.89 338.01 M582.95 338.1 C445.73 335, 309.8 335.22, -0.48 337.84 M-2.17 338.95 C2.25 268.8, -0.12 195.78, 2.31 -0.2 M-0.91 338.23 C3.19 209.3, 2.11 79.02, 0.3 0.26" stroke="#ffffff" stroke-width="4" fill="none"></path></g><g transform="translate(126.38597469237607 2504.539125643191) rotate(0 175.03334045410156 61.22254519883984)"><text x="175.03334045410156" y="0" font-family="Virgil, Segoe UI Emoji" font-size="97.95607231814374px" fill="#ffffff" text-anchor="middle" style="white-space: pre;" direction="ltr" dominant-baseline="text-before-edge">Estado</text></g><g stroke-linecap="round"><g transform="translate(616.9581614226504 2555.2652079678537) rotate(0 49.74533334792841 1.519849964099535)"><path d="M0 0 C16.58 0.51, 82.91 2.53, 99.49 3.04 M0 0 C16.58 0.51, 82.91 2.53, 99.49 3.04" stroke="#ffffff" stroke-width="4" fill="none"></path></g><g transform="translate(616.9581614226504 2555.2652079678537) rotate(0 49.74533334792841 1.519849964099535)"><path d="M71 12.43 C81.76 8.89, 92.52 5.34, 99.49 3.04 M71 12.43 C81.8 8.87, 92.6 5.31, 99.49 3.04" stroke="#ffffff" stroke-width="4" fill="none"></path></g><g transform="translate(616.9581614226504 2555.2652079678537) rotate(0 49.74533334792841 1.519849964099535)"><path d="M71.63 -8.08 C82.15 -3.88, 92.67 0.32, 99.49 3.04 M71.63 -8.08 C82.19 -3.86, 92.75 0.35, 99.49 3.04" stroke="#ffffff" stroke-width="4" fill="none"></path></g></g><mask></mask><g stroke-linecap="round" transform="translate(1676.3942966330583 2561.15540597478) rotate(0 311.70875636555206 180.73869066574025)"><path d="M3.32 2.68 L620.51 -3.38 L627.29 359.16 L3.34 363.53" stroke="none" stroke-width="0" fill="#099268"></path><path d="M0.39 -0.01 C145.32 -4.5, 292.04 -5.35, 624.68 0.05 M0.01 -0.46 C167.11 -0.65, 334.43 -0.54, 622.83 -0.06 M625.22 -1.69 C620.04 115.69, 621.43 232.87, 625.3 361.83 M623.35 -0.5 C625.67 131.7, 625.64 261.45, 624.59 360.77 M622.53 361.54 C473.92 364.19, 325.37 363.13, 0.31 361 M622.94 361.37 C409.06 364.78, 196.52 364.3, 0.3 361.86 M2.17 361.29 C3.92 227.61, -0.43 94.19, 0.53 2.36 M0.28 361.72 C0.4 238.13, -1.44 114.1, -0.11 -0.91" stroke="#ffffff" stroke-width="4" fill="none"></path></g><g transform="translate(1718.987205078642 2640.5609564470033) rotate(0 266.8999938964844 95.95358624022458)"><text x="266.8999938964844" y="0" font-family="Virgil, Segoe UI Emoji" font-size="76.76286899217963px" fill="#ffffff" text-anchor="middle" style="white-space: pre;" direction="ltr" dominant-baseline="text-before-edge">Escuela</text><text x="266.8999938964844" y="95.95358624022454" font-family="Virgil, Segoe UI Emoji" font-size="76.76286899217963px" fill="#ffffff" text-anchor="middle" style="white-space: pre;" direction="ltr" dominant-baseline="text-before-edge">Buena calidad</text></g><g stroke-linecap="round" transform="translate(748.2866121687257 2429.686137667618) rotate(0 199.98399623028195 115.95710705789452)"><path d="M3.87 -2.32 L403.31 2.06 L402.6 234.59 L-1.11 228.54" stroke="none" stroke-width="0" fill="#099268"></path><path d="M1.92 -1.64 C121.59 0.93, 238.88 0.83, 400.32 0.04 M-0.61 0.33 C96.02 -0.76, 193.96 -1.69, 400.87 0.81 M402.74 -0.02 C403.56 54.54, 403.16 110.11, 396.86 231.74 M399.35 -1.2 C400.2 59.48, 397.58 121.37, 400.45 230.97 M398.37 232.22 C278.8 234.86, 157.72 237.5, 1.58 230.55 M400.5 231 C285.98 231.5, 171.91 230.49, -0.11 232.89 M-3.05 229.61 C-2.53 167.26, -1.76 96.7, -1.16 0.75 M-1.14 233.24 C-3.25 156.57, -1.69 84.8, -1.23 -1.43" stroke="#ffffff" stroke-width="4" fill="none"></path></g><g transform="translate(893.7214906892955 2501.9565547939296) rotate(0 54.06666564941406 42.013444586193714)"><text x="54.06666564941406" y="0" font-family="Virgil, Segoe UI Emoji" font-size="67.22151133790989px" fill="#ffffff" text-anchor="middle" style="white-space: pre;" direction="ltr" dominant-baseline="text-before-edge">Vos</text></g><g stroke-linecap="round"><g transform="translate(1175.120861383482 2529.7183703401383) rotate(0 222.83977541794047 -110.74098680579982)"><path d="M0 0 C74.28 -36.91, 371.4 -184.57, 445.68 -221.48 M0 0 C74.28 -36.91, 371.4 -184.57, 445.68 -221.48" stroke="#ffffff" stroke-width="4" fill="none"></path></g><g transform="translate(1175.120861383482 2529.7183703401383) rotate(0 222.83977541794047 -110.74098680579982)"><path d="M425 -199.75 C429.71 -204.7, 434.42 -209.65, 445.68 -221.48 M425 -199.75 C431.81 -206.9, 438.61 -214.05, 445.68 -221.48" stroke="#ffffff" stroke-width="4" fill="none"></path></g><g transform="translate(1175.120861383482 2529.7183703401383) rotate(0 222.83977541794047 -110.74098680579982)"><path d="M415.87 -218.12 C422.66 -218.89, 429.45 -219.65, 445.68 -221.48 M415.87 -218.12 C425.68 -219.23, 435.49 -220.33, 445.68 -221.48" stroke="#ffffff" stroke-width="4" fill="none"></path></g></g><mask></mask><g stroke-linecap="round"><g transform="translate(656.3531037005528 925.6729502897193) rotate(0 482.51622964385524 -99.36753714799704)"><path d="M0 0 C160.84 -33.12, 804.19 -165.61, 965.03 -198.74 M0 0 C160.84 -33.12, 804.19 -165.61, 965.03 -198.74" stroke="#ffffff" stroke-width="4" fill="none"></path></g><g transform="translate(656.3531037005528 925.6729502897193) rotate(0 482.51622964385524 -99.36753714799704)"><path d="M939.49 -183 C948.29 -188.42, 957.09 -193.84, 965.03 -198.74 M939.49 -183 C945.3 -186.58, 951.12 -190.16, 965.03 -198.74" stroke="#ffffff" stroke-width="4" fill="none"></path></g><g transform="translate(656.3531037005528 925.6729502897193) rotate(0 482.51622964385524 -99.36753714799704)"><path d="M935.35 -203.1 C945.58 -201.59, 955.81 -200.09, 965.03 -198.74 M935.35 -203.1 C942.11 -202.11, 948.86 -201.11, 965.03 -198.74" stroke="#ffffff" stroke-width="4" fill="none"></path></g></g><mask></mask><g stroke-linecap="round" transform="translate(1675.9997149740434 542.6318998740951) rotate(0 317.70110274156036 184.21324444678706)"><path d="M1.72 -3.48 L636.97 3.06 L638.38 370.67 L-3.82 369.76" stroke="none" stroke-width="0" fill="#fa5252"></path><path d="M-0.08 -0.36 C206.77 2.34, 413.54 4.47, 635.93 -1.36 M0.48 -0.03 C213.53 0.72, 426.78 1.71, 635.76 -0.04 M635.34 -0.76 C631.6 77.36, 630.69 156.44, 635.46 369.04 M636.21 0.86 C639.79 110.26, 638.98 220.99, 636.03 367.52 M634.48 368.46 C432.78 371.69, 230.13 370.76, 0.68 369.73 M634.74 368.49 C401.83 367.52, 168.74 368.53, -0.73 367.92 M-1.69 367.82 C3.02 242.09, 3.45 110.09, 0.04 1.12 M-0.59 368.85 C3.42 254.09, 2.89 139.44, 0.23 -0.62" stroke="#ffffff" stroke-width="4" fill="none"></path></g><g transform="translate(1732.7688022289835 607.7670400629866) rotate(0 266.5083312988281 104.72249207129914)"><text x="266.5083312988281" y="0" font-family="Virgil, Segoe UI Emoji" font-size="83.77799365703932px" fill="#ffffff" text-anchor="middle" style="white-space: pre;" direction="ltr" dominant-baseline="text-before-edge">Escuela </text><text x="266.5083312988281" y="104.72249207129914" font-family="Virgil, Segoe UI Emoji" font-size="83.77799365703932px" fill="#ffffff" text-anchor="middle" style="white-space: pre;" direction="ltr" dominant-baseline="text-before-edge">Baja calidad</text></g><g stroke-linecap="round" transform="translate(1667.8403115064143 2138.3922147817702) rotate(0 317.70110274156036 184.21324444678703)"><path d="M-2.87 1.12 L633.74 -1.29 L632.55 367.31 L3.92 366.07" stroke="none" stroke-width="0" fill="#fa5252"></path><path d="M0.29 0.45 C248.23 -1.51, 499.64 -1.29, 636.08 0.78 M0.48 0.53 C176.7 -1.27, 353.01 -0.42, 636.04 -0.29 M633.39 0.04 C635.21 98.07, 638.7 192.35, 634.82 369.86 M636.54 0.26 C631.6 106.55, 632.99 211.21, 634.8 369.5 M635.91 367.89 C405.31 363.26, 175.46 364.85, 0.44 369.97 M635.04 368.89 C429.1 366.15, 222.24 366.29, 0.28 368.99 M2.47 366.28 C-1.35 277.71, -2.75 186.73, -1.76 1.8 M-0.34 367.54 C-0.18 246.1, 0.36 123.65, -0.32 0.15" stroke="#ffffff" stroke-width="4" fill="none"></path></g><g transform="translate(1724.6093987613544 2203.5273549706617) rotate(0 266.5083312988281 104.72249207129914)"><text x="266.5083312988281" y="0" font-family="Virgil, Segoe UI Emoji" font-size="83.77799365703932px" fill="#ffffff" text-anchor="middle" style="white-space: pre;" direction="ltr" dominant-baseline="text-before-edge">Escuela </text><text x="266.5083312988281" y="104.72249207129914" font-family="Virgil, Segoe UI Emoji" font-size="83.77799365703932px" fill="#ffffff" text-anchor="middle" style="white-space: pre;" direction="ltr" dominant-baseline="text-before-edge">Baja calidad</text></g><g stroke-linecap="round"><g transform="translate(1183.2004057075492 2561.7279248788814) rotate(0 211.52805058903914 98.41051344104221)"><path d="M0 0 C70.51 32.8, 352.55 164.02, 423.06 196.82 M0 0 C70.51 32.8, 352.55 164.02, 423.06 196.82" stroke="#ffffff" stroke-width="4" fill="none"></path></g><g transform="translate(1183.2004057075492 2561.7279248788814) rotate(0 211.52805058903914 98.41051344104221)"><path d="M393.17 194.23 C402.52 195.04, 411.87 195.85, 423.06 196.82 M393.17 194.23 C399.6 194.79, 406.04 195.35, 423.06 196.82" stroke="#ffffff" stroke-width="4" fill="none"></path></g><g transform="translate(1183.2004057075492 2561.7279248788814) rotate(0 211.52805058903914 98.41051344104221)"><path d="M401.82 175.63 C408.47 182.26, 415.11 188.89, 423.06 196.82 M401.82 175.63 C406.4 180.19, 410.97 184.75, 423.06 196.82" stroke="#ffffff" stroke-width="4" fill="none"></path></g></g><mask></mask><g stroke-linecap="round" transform="translate(1336.049172058788 2340.1978756969443) rotate(0 75.77565676790209 75.77565676790209)"><path d="M16.33 28.77 C16.33 28.77, 16.33 28.77, 16.33 28.77 M16.33 28.77 C16.33 28.77, 16.33 28.77, 16.33 28.77 M2.82 68.7 C25.64 42.44, 48.47 16.17, 59.89 3.04 M2.82 68.7 C23.28 45.15, 43.75 21.61, 59.89 3.04 M2.43 93.53 C21.09 72.06, 39.76 50.58, 80.5 3.72 M2.43 93.53 C24.92 67.66, 47.42 41.78, 80.5 3.72 M9.25 110.07 C30.03 86.17, 50.8 62.27, 101.1 4.41 M9.25 110.07 C29.96 86.25, 50.67 62.42, 101.1 4.41 M18.05 124.34 C45.51 92.74, 72.98 61.15, 115.14 12.64 M18.05 124.34 C54.64 82.25, 91.22 40.16, 115.14 12.64 M29.47 135.59 C59.73 100.78, 89.98 65.97, 128.53 21.63 M29.47 135.59 C66.66 92.8, 103.86 50.01, 128.53 21.63 M42.85 144.58 C65.82 118.16, 88.78 91.74, 139.95 32.88 M42.85 144.58 C68.1 115.54, 93.34 86.5, 139.95 32.88 M59.52 149.79 C80.66 125.47, 101.8 101.15, 148.75 47.15 M59.52 149.79 C90.93 113.66, 122.34 77.53, 148.75 47.15 M77.5 153.5 C104.03 122.98, 130.55 92.47, 151.64 68.21 M77.5 153.5 C94.92 133.46, 112.33 113.43, 151.64 68.21 M102.7 148.9 C117.64 131.71, 132.59 114.51, 150.59 93.81 M102.7 148.9 C113.78 136.16, 124.85 123.41, 150.59 93.81" stroke="#fa5252" stroke-width="2" fill="none"></path><path d="M151.55 75.78 C151.55 78.6, 151.39 81.45, 151.07 84.26 C150.76 87.07, 150.28 89.88, 149.65 92.64 C149.02 95.39, 148.23 98.13, 147.3 100.8 C146.36 103.47, 145.27 106.11, 144.05 108.65 C142.82 111.2, 141.44 113.7, 139.94 116.09 C138.43 118.49, 136.78 120.81, 135.02 123.02 C133.26 125.23, 131.36 127.36, 129.36 129.36 C127.36 131.36, 125.23 133.26, 123.02 135.02 C120.81 136.78, 118.49 138.43, 116.09 139.94 C113.7 141.44, 111.2 142.82, 108.65 144.05 C106.11 145.27, 103.47 146.36, 100.8 147.3 C98.13 148.23, 95.39 149.02, 92.64 149.65 C89.88 150.28, 87.07 150.76, 84.26 151.07 C81.45 151.39, 78.6 151.55, 75.78 151.55 C72.95 151.55, 70.1 151.39, 67.29 151.07 C64.48 150.76, 61.67 150.28, 58.91 149.65 C56.16 149.02, 53.42 148.23, 50.75 147.3 C48.08 146.36, 45.45 145.27, 42.9 144.05 C40.35 142.82, 37.86 141.44, 35.46 139.94 C33.07 138.43, 30.74 136.78, 28.53 135.02 C26.32 133.26, 24.19 131.36, 22.19 129.36 C20.19 127.36, 18.3 125.23, 16.53 123.02 C14.77 120.81, 13.12 118.49, 11.61 116.09 C10.11 113.7, 8.73 111.2, 7.5 108.65 C6.28 106.11, 5.19 103.47, 4.25 100.8 C3.32 98.13, 2.53 95.39, 1.9 92.64 C1.27 89.88, 0.79 87.07, 0.48 84.26 C0.16 81.45, 0 78.6, 0 75.78 C0 72.95, 0.16 70.1, 0.48 67.29 C0.79 64.48, 1.27 61.67, 1.9 58.91 C2.53 56.16, 3.32 53.42, 4.25 50.75 C5.19 48.08, 6.28 45.45, 7.5 42.9 C8.73 40.35, 10.11 37.86, 11.61 35.46 C13.12 33.07, 14.77 30.74, 16.53 28.53 C18.3 26.32, 20.19 24.19, 22.19 22.19 C24.19 20.19, 26.32 18.3, 28.53 16.53 C30.74 14.77, 33.07 13.12, 35.46 11.61 C37.86 10.11, 40.35 8.73, 42.9 7.5 C45.45 6.28, 48.08 5.19, 50.75 4.25 C53.42 3.32, 56.16 2.53, 58.91 1.9 C61.67 1.27, 64.48 0.79, 67.29 0.48 C70.1 0.16, 72.95 0, 75.78 0 C78.6 0, 81.45 0.16, 84.26 0.48 C87.07 0.79, 89.88 1.27, 92.64 1.9 C95.39 2.53, 98.13 3.32, 100.8 4.25 C103.47 5.19, 106.11 6.28, 108.65 7.5 C111.2 8.73, 113.7 10.11, 116.09 11.61 C118.49 13.12, 120.81 14.77, 123.02 16.53 C125.23 18.3, 127.36 20.19, 129.36 22.19 C131.36 24.19, 133.26 26.32, 135.02 28.53 C136.78 30.74, 138.43 33.07, 139.94 35.46 C141.44 37.86, 142.82 40.35, 144.05 42.9 C145.27 45.45, 146.36 48.08, 147.3 50.75 C148.23 53.42, 149.02 56.16, 149.65 58.91 C150.28 61.67, 150.76 64.48, 151.07 67.29 C151.39 70.1, 151.47 74.36, 151.55 75.78 C151.63 77.19, 151.63 74.36, 151.55 75.78" stroke="#1e1e1e" stroke-width="4" fill="none"></path></g><g stroke-linecap="round"><g transform="translate(1348.9471561894948 2320.850899500884) rotate(0 72.55116073522527 95.12263296396213)"><path d="M0 0 C24.18 31.71, 120.92 158.54, 145.1 190.25 M0 0 C24.18 31.71, 120.92 158.54, 145.1 190.25" stroke="#e03131" stroke-width="4" fill="none"></path></g></g><mask></mask><g transform="translate(946.6660090923262 1757.5499965766126) rotate(0 732.7833251953126 154.3704999436742)"><text x="0" y="0" font-family="Virgil, Segoe UI Emoji" font-size="82.33093330329288px" fill="#ffffff" text-anchor="start" style="white-space: pre;" direction="ltr" dominant-baseline="text-before-edge">Tiene que mejorar para conseguir </text><text x="0" y="102.91366662911611" font-family="Virgil, Segoe UI Emoji" font-size="82.33093330329288px" fill="#ffffff" text-anchor="start" style="white-space: pre;" direction="ltr" dominant-baseline="text-before-edge">más estudiantes, poder sustentarse</text><text x="0" y="205.82733325823222" font-family="Virgil, Segoe UI Emoji" font-size="82.33093330329288px" fill="#ffffff" text-anchor="start" style="white-space: pre;" direction="ltr" dominant-baseline="text-before-edge">y competir</text></g><g stroke-linecap="round"><g transform="translate(1688.3326757589932 2094.216663243281) rotate(0 -82.10232035627587 -41.87650001877557)"><path d="M0 0 C-10.56 -8.33, -35.97 -36.04, -63.33 -50 C-90.7 -63.96, -147.39 -78.13, -164.2 -83.75 M0 0 C-10.56 -8.33, -35.97 -36.04, -63.33 -50 C-90.7 -63.96, -147.39 -78.13, -164.2 -83.75" stroke="#ffffff" stroke-width="4" fill="none"></path></g><g transform="translate(1688.3326757589932 2094.216663243281) rotate(0 -82.10232035627587 -41.87650001877557)"><path d="M-134.26 -85.57 C-144.59 -84.94, -154.91 -84.32, -164.2 -83.75 M-134.26 -85.57 C-140.42 -85.19, -146.59 -84.82, -164.2 -83.75" stroke="#ffffff" stroke-width="4" fill="none"></path></g><g transform="translate(1688.3326757589932 2094.216663243281) rotate(0 -82.10232035627587 -41.87650001877557)"><path d="M-140.1 -65.89 C-148.41 -72.05, -156.73 -78.21, -164.2 -83.75 M-140.1 -65.89 C-145.06 -69.57, -150.02 -73.25, -164.2 -83.75" stroke="#ffffff" stroke-width="4" fill="none"></path></g></g><mask></mask><g transform="translate(14.716017230348143 238.17949663293803) rotate(0 801.6166381835938 154.37049994367416)"><text x="0" y="0" font-family="Virgil, Segoe UI Emoji" font-size="82.33093330329288px" fill="#ffffff" text-anchor="start" style="white-space: pre;" direction="ltr" dominant-baseline="text-before-edge">No le importa mejorar porque el estado</text><text x="0" y="102.91366662911611" font-family="Virgil, Segoe UI Emoji" font-size="82.33093330329288px" fill="#ffffff" text-anchor="start" style="white-space: pre;" direction="ltr" dominant-baseline="text-before-edge">le da el dinero directamente </text><text x="0" y="205.82733325823222" font-family="Virgil, Segoe UI Emoji" font-size="82.33093330329288px" fill="#ffffff" text-anchor="start" style="white-space: pre;" direction="ltr" dominant-baseline="text-before-edge">sin importar que</text></g><g stroke-linecap="round"><g transform="translate(1639.601662781936 588.587367210942) rotate(0 -183.7689870229426 -64.66225429741647)"><path d="M0 0 C-26.7 -1.06, -98.92 16.06, -160.18 -6.37 C-221.44 -28.8, -332.98 -113.21, -367.54 -134.58 M0 0 C-26.7 -1.06, -98.92 16.06, -160.18 -6.37 C-221.44 -28.8, -332.98 -113.21, -367.54 -134.58" stroke="#ffffff" stroke-width="4" fill="none"></path></g><g transform="translate(1639.601662781936 588.587367210942) rotate(0 -183.7689870229426 -64.66225429741647)"><path d="M-338.45 -127.24 C-347.83 -129.61, -357.2 -131.97, -367.54 -134.58 M-338.45 -127.24 C-346.04 -129.16, -353.63 -131.07, -367.54 -134.58" stroke="#ffffff" stroke-width="4" fill="none"></path></g><g transform="translate(1639.601662781936 588.587367210942) rotate(0 -183.7689870229426 -64.66225429741647)"><path d="M-349.97 -110.26 C-355.63 -118.1, -361.3 -125.94, -367.54 -134.58 M-349.97 -110.26 C-354.56 -116.61, -359.14 -122.95, -367.54 -134.58" stroke="#ffffff" stroke-width="4" fill="none"></path></g></g><mask></mask><g transform="translate(826.739510600888 10) rotate(0 315.60833740234375 52.25992223986776)"><text x="0" y="0" font-family="Virgil, Segoe UI Emoji" font-size="83.61587558378842px" fill="#ffffff" text-anchor="start" style="white-space: pre;" direction="ltr" dominant-baseline="text-before-edge">Sistema actual</text></g><g transform="translate(816.1654320056905 1571.9067444267982) rotate(0 422.4916687011719 52.25992223986776)"><text x="0" y="0" font-family="Virgil, Segoe UI Emoji" font-size="83.61587558378842px" fill="#ffffff" text-anchor="start" style="white-space: pre;" direction="ltr" dominant-baseline="text-before-edge">Sistema de vouchers</text></g></svg>